<?xml version="1.0" encoding="UTF-8" standalone="no"?>
<!-- Created with Inkscape (http://www.inkscape.org/) -->

<svg
   width="297mm"
   height="210mm"
   viewBox="0 0 1122.5197 793.70081"
   version="1.1"
   id="svg1"
   xml:space="preserve"
   sodipodi:docname="estres_cansado.svg"
   inkscape:version="1.4.2 (f4327f4, 2025-05-13)"
   xmlns:inkscape="http://www.inkscape.org/namespaces/inkscape"
   xmlns:sodipodi="http://sodipodi.sourceforge.net/DTD/sodipodi-0.dtd"
   xmlns="http://www.w3.org/2000/svg"
   xmlns:svg="http://www.w3.org/2000/svg"><sodipodi:namedview
     id="namedview1"
     pagecolor="#ffffff"
     bordercolor="#000000"
     borderopacity="0.25"
     inkscape:showpageshadow="2"
     inkscape:pageopacity="0.0"
     inkscape:pagecheckerboard="0"
     inkscape:deskcolor="#d1d1d1"
     inkscape:document-units="mm"
     showguides="true"
     inkscape:zoom="1"
     inkscape:cx="580"
     inkscape:cy="216"
     inkscape:window-width="1430"
     inkscape:window-height="774"
     inkscape:window-x="413"
     inkscape:window-y="101"
     inkscape:window-maximized="0"
     inkscape:current-layer="g35" /><defs
     id="defs1" /><g
     inkscape:label="Capa 1"
     inkscape:groupmode="layer"
     id="layer1"><g
       id="g35"
       transform="matrix(1.110105,0,0,1.110105,174.98003,5.1857577)"><g
         id="g36"
         transform="matrix(0.81258579,0,0,0.81258579,115.49734,-0.23325511)"><rect
           x="207.3502"
           y="347.40723"
           width="115"
           height="127"
           fill="#090814"
           id="rect1" /><path
           d="m 207.93998,210.99916 -32.03704,89.14636 -32.03665,-7.36666 39.52706,-90.5425 c -2.93298,-5.95002 -3.43099,-13.64607 -0.7573,-21.13569 4.67827,-13.1049 17.26259,-20.58982 28.10803,-16.71817 10.84543,3.87169 15.84487,17.63372 11.16659,30.73866 -2.6737,7.48966 -7.93298,13.13038 -13.97068,15.87801 z"
           fill="#ed9da0"
           id="path1" /><path
           d="m 210.07285,213.00391 c -0.29395,0 -0.59082,-0.0332 -0.88379,-0.10254 -1.13965,-0.2666 -2.08496,-1.02441 -2.59277,-2.0791 l -9.92773,-20.6084 c -0.57129,-1.18555 -0.50098,-2.56348 0.1875,-3.68555 l 22.72559,-37.06641 c 0.61523,-1.00293 1.63867,-1.66211 2.80566,-1.80859 l 4.09473,-0.51172 c 1.5791,-0.19238 3.14941,0.62012 3.89062,2.03516 l 9.02344,17.22656 c 0.63574,1.21484 0.5752,2.68848 -0.15723,3.84863 l -25.91602,40.95898 c -0.23926,0.37695 -0.53809,0.70605 -0.8877,0.97852 -0.68555,0.53418 -1.51465,0.81445 -2.3623,0.81445 z"
           id="path2" /><path
           d="m 210.99961,204.95215 c -0.11914,0 -0.23926,-0.007 -0.36035,-0.0215 -1.11719,-0.13281 -2.05762,-0.87012 -2.45312,-1.92383 l -5.00781,-13.33887 c -0.32715,-0.87207 -0.23633,-1.82715 0.24902,-2.62012 l 19.92285,-32.56934 c 0.54102,-0.88477 1.48242,-1.4209 2.51953,-1.43457 1.08008,0.0127 1.99414,0.5 2.55957,1.37109 l 7.94043,12.27051 c 0.65625,1.01367 0.6416,2.31641 -0.0371,3.31641 l -22.85645,33.63672 c -0.56348,0.83008 -1.49023,1.31348 -2.47656,1.31348 z"
           fill="#eddac5"
           id="path3" /><path
           d="m 306.93661,150.92243 c 1.18598,-25.45958 -18.4917,-47.06012 -43.95127,-48.2461 -25.45958,-1.18598 -47.06029,18.49169 -48.24628,43.95126 -0.96184,20.6479 11.80004,38.7552 30.23841,45.49557 l 6.16814,59.3107 47.19415,-35.74246 c 0,0 -9.23204,-12.95832 -13.83871,-27.29924 12.82439,-7.67595 21.68796,-21.4208 22.43556,-37.46973 z"
           fill="#ed9da0"
           id="path4" /><path
           d="m 294.3502,196.84961 -49,16 -2,13 -33,169 13,15 c 0,0 -13.5,5.5 -4.5,17.5 l -5,16 c 0,0 51,38 119,4 l -23,-238 z"
           fill="#eddac5"
           id="path5" /><path
           d="m 224.8502,441.34961 -11,2 -6,25 -6,5 4,8 -4,11.83566 c 0,0 -16,67.16434 -11,127.16434 l -0.96786,153.3798 39.96786,9.6202 8,-14 4,-139 29,-105 27,106 11,12 35,69 c 0,0 30,2 32,-28 0,0 -15,-74 -34,-86 l 2.45427,-136.8605 -11.45427,-14.1395 z"
           fill="#090814"
           id="path6" /><polygon
           points="194.8502,800.34961 196.8502,768.34961 227.8502,776.34961 230.8502,804.34961 "
           fill="#ed9da0"
           id="polygon6" /><path
           d="m 235.8502,797.34961 c 0,0 -14,16 -25,-9 0,0 -3,-17 -22,-9 l -25.19397,23.04278 c 0,0 -28.80603,0.95722 -27.80603,18.95722 0,0 9,18 57,17 48,-1 43,-1.61604 43,-1.61604 z"
           fill="#090814"
           id="path7" /><path
           d="m 339.8502,708.34961 2,19 -8,24 c 0,0 -14,35 8,35 22,0 34,-23.09619 34,-23.09619 0,0 7,-28.90381 4,-43.90381 0,0 10.38802,-30.02172 -5.30599,-41.01086 z"
           fill="#090814"
           id="path8" /><path
           d="m 246.3502,205.40723 -20.5,15.94238 c 0,0 -15,3 -21,9 -6,6 -39,-15 -47,11 l -20,33 -19,26 v 39.03784 l 20,13.96216 c 0,0 50,-14 57,-27 0,0 -18.1686,86 -11.0843,112.5 l -3.1545,26.5 24.2388,16 18.5,-158.94238 24.5,-99.05762 z"
           fill="#090814"
           id="path9" /><path
           d="m 278.33311,118.47369 c -5.3314,2.21898 -11.79365,1.46056 -16.46641,-1.93253 -11.43803,6.17695 -25.19548,7.92776 -37.81605,4.81257 -1.88018,4.99199 -5.66872,9.23796 -10.41507,11.67257 -0.18698,-6.91067 2.18308,-13.86173 6.55288,-19.2187 -3.96687,1.78282 -7.93375,3.56563 -11.90062,5.34845 2.96195,-4.27825 5.9239,-8.55651 8.88585,-12.83476 l 0.67553,-0.58382 c -3.58012,-0.97973 -7.16024,-1.95947 -10.74035,-2.9392 6.76984,-3.48936 14.6455,-4.79209 22.17837,-3.66855 -1.32103,-3.11679 -4.31282,-5.46497 -7.65424,-6.00759 7.90098,-1.67243 15.80197,-3.34485 23.70295,-5.01728 l -0.27027,0.9727 c 10.59787,-2.38827 21.50321,-4.78949 32.23596,-3.10823 10.73275,1.68126 21.40144,8.41875 24.44858,18.84629 l 0.0504,-0.55935 c 6.43502,0.14088 12.72609,3.44278 16.49742,8.65875 3.77133,5.21597 4.93535,12.22491 3.05248,18.37991 -2.25845,7.38275 -8.59058,13.66329 -8.25933,21.37665 l -0.29044,0.0603 c 2.09668,11.77987 -18.50922,29.01721 -28.45057,35.67537 4.21228,-1.96454 9.19214,-9.50762 8,-14 -1.19214,-4.49238 9.63211,-21.3825 5,-21 -2.60025,0.21472 -16.71389,-3.72636 -18.65707,-9.36113 -1.63712,-4.74727 -3.28809,-9.87887 -1.85315,-14.69111 0.56611,-1.89851 1.59126,-3.63809 2.12362,-5.54633 0.53236,-1.90824 0.46986,-4.17371 -0.89854,-5.60629"
           fill="#090814"
           id="path10" /><path
           d="m 188.10676,295.71365 19.24343,-70.36404 c 0,0 -20.73026,14 -33.34868,-11 l -35.15132,59"
           fill="#090814"
           id="path11" /><path
           d="m 351.29725,479.50319 32.03704,-89.14636 32.03665,7.36666 -39.52706,90.5425 c 2.93298,5.95002 3.43099,13.64607 0.7573,21.13569 -4.67827,13.1049 -17.26259,20.58982 -28.10803,16.71817 -10.84543,-3.87169 -15.84487,-17.63372 -11.16659,-30.73866 2.6737,-7.48966 7.93298,-13.13038 13.97068,-15.87801 z"
           fill="#ed9da0"
           id="path12" /><path
           d="M 503.60892,840.46931 H 2.17174 c -1.29421,-0.0989 -2.25044,-1.22414 -2.16663,-2.51834 -0.08381,-1.28047 0.87242,-2.40569 2.16663,-2.50461 h 501.43718 c 1.14033,0.14014 2.04023,1.04141 2.18037,2.18037 0.18273,1.39313 -0.78724,2.65848 -2.18037,2.84258 z"
           fill="#cccccc"
           id="path13" /><path
           d="m 284.3502,193.40723 c 0,0 29.5,-1.05762 30.5,15.94238 l 58,24 47,141 c 0,0 -14,84 -30,96 l -10,26 c 0,0 -2,-20 -32,-19 l 1,-12 c 0,0 -32,26 -57,19 0,0 -28.96786,-187.16874 -8.98393,-230.58437 0,0 12.48393,-57.35801 1.48393,-60.35801 z"
           fill="#090814"
           id="path14" /><polygon
           points="349.33848,465.45605 348.36192,465.24316 365.33555,387.36426 347.36192,322.84766 348.32481,322.58008 366.36484,387.33496 "
           fill="#ffffff"
           id="polygon14" /><rect
           x="487.12851"
           y="218.97168"
           width="36.182621"
           height="1"
           fill="#090814"
           id="rect14" /><rect
           x="487.12851"
           y="238.89258"
           width="67.183594"
           height="1"
           fill="#090814"
           id="rect15" /><rect
           x="487.12851"
           y="256.73633"
           width="67.183594"
           height="1"
           fill="#090814"
           id="rect16" /><circle
           cx="383.22305"
           cy="56.582298"
           r="10.19673"
           fill="#eddac5"
           id="circle16" /><circle
           cx="408.71487"
           cy="56.582298"
           r="10.19673"
           fill="#eddac5"
           id="circle17" /><circle
           cx="434.2067"
           cy="56.582298"
           r="10.19673"
           fill="#eddac5"
           id="circle18" /><path
           d="m 368.16074,118.33008 c -0.78125,0 -1.56641,-0.21094 -2.28906,-0.63672 -1.59766,-0.94141 -2.42773,-2.66699 -2.16504,-4.50391 l 2.65039,-18.55566 C 352.45176,84.36133 344.48496,69.58008 344.48496,54.0332 344.48496,24.23925 373.29844,0 408.71543,0 c 35.41699,0 64.22852,24.23926 64.22852,54.0332 0,29.79394 -28.8125,54.03223 -64.22852,54.03223 -7.34375,0 -14.55664,-1.04004 -21.44141,-3.09082 l -16.41211,12.42969 c -0.81152,0.61426 -1.75293,0.9248 -2.70117,0.92578 z M 408.71543,1 c -34.86523,0 -63.23047,23.79102 -63.23047,53.0332 0,15.31348 7.91113,29.88281 21.7041,39.97168 l 0.24219,0.17676 -2.73438,19.14941 c -0.2041,1.42773 0.44043,2.76953 1.68262,3.50098 1.24219,0.73242 2.72754,0.64551 3.87891,-0.22461 l 16.81738,-12.73633 0.24316,0.0732 c 6.86523,2.07129 14.06348,3.12109 21.39648,3.12109 34.86426,0 63.22852,-23.79004 63.22852,-53.03223 C 471.94394,24.791 443.57969,1 408.71543,1 Z"
           fill="#090814"
           id="path18" /><path
           d="M 156.35508,149.16406 H 52.2877 c -2.50781,0 -4.54883,-2.04004 -4.54883,-4.54785 V 78.78613 c 0,-2.50781 2.04102,-4.54785 4.54883,-4.54785 h 104.06738 c 2.50781,0 4.54785,2.04004 4.54785,4.54785 v 65.83008 c 0,2.50781 -2.04004,4.54785 -4.54785,4.54785 z M 52.2877,75.23828 c -1.95703,0 -3.54883,1.5918 -3.54883,3.54785 v 65.83008 c 0,1.95605 1.5918,3.54785 3.54883,3.54785 h 104.06738 c 1.95605,0 3.54785,-1.5918 3.54785,-3.54785 V 78.78613 c 0,-1.95605 -1.5918,-3.54785 -3.54785,-3.54785 z"
           fill="#090814"
           id="path19" /><polygon
           points="153.27988,84.05273 104.31602,122.58008 104.00547,122.3291 56.84629,84.04883 57.47715,83.27148 104.32578,121.30078 152.66074,83.26758 "
           fill="#090814"
           id="polygon19" /><rect
           x="54.43626"
           y="125.22201"
           width="42.54467"
           height="0.99932998"
           transform="rotate(-41.19646,75.708595,125.72168)"
           fill="#090814"
           id="rect19" /><rect
           x="136.02737"
           y="102.51503"
           width="1.00014"
           height="45.524632"
           transform="rotate(-46.25071,136.52744,125.27735)"
           fill="#090814"
           id="rect20" /><path
           d="m 561.17102,311.04021 h -74.68164 c -10.83984,0 -19.65918,-8.81885 -19.65918,-19.65918 v -80.68164 c 0,-10.84033 8.81934,-19.65918 19.65918,-19.65918 h 74.68164 c 10.83984,0 19.65918,8.81885 19.65918,19.65918 v 80.68164 c 0,10.84033 -8.81934,19.65918 -19.65918,19.65918 z m -74.68165,-119 c -10.28906,0 -18.65918,8.37061 -18.65918,18.65918 v 80.68164 c 0,10.28857 8.37012,18.65918 18.65918,18.65918 h 74.68164 c 10.28906,0 18.65918,-8.37061 18.65918,-18.65918 v -80.68164 c 0,-10.28857 -8.37012,-18.65918 -18.65918,-18.65918 z"
           fill="#090814"
           id="path20" /></g><path
         style="fill:#3ad7ec;fill-opacity:1;stroke-width:0.592972"
         d="m 336.28046,109.76807 c 5.89475,15.80689 2.80001,16.99987 2.80001,16.99987 0,0 -7.36845,6.114 -2.80001,-16.99987 z"
         id="path36" /><path
         style="fill:#e4fafc;fill-opacity:1;stroke-width:0.330029"
         d="m 335.90919,116.06521 c 3.28084,8.79763 1.5584,9.4616 1.5584,9.4616 0,0 -4.10106,3.40287 -1.5584,-9.4616 z"
         id="path36-1" /></g></g></svg>
