<?xml version="1.0" encoding="UTF-8"?>
<svg xmlns="http://www.w3.org/2000/svg" xmlns:xlink="http://www.w3.org/1999/xlink" width="2836" height="2835" viewBox="0 0 2836 2835">

<path fill-rule="evenodd" fill="rgb(90.039062%, 92.96875%, 96.09375%)" fill-opacity="1" d="M 1686.730469 1158.480469 C 1708.230469 953.429688 1533.640625 918.289062 1488.359375 1077.550781 C 1428.589844 1287.761719 1673.089844 1288.710938 1686.730469 1158.480469 Z M 1396.949219 904.910156 C 1321.691406 871.390625 1284.640625 983.460938 1349.910156 1011.890625 C 1408.300781 1037.320312 1450.449219 978.070312 1430.53125 931.839844 C 1421.441406 910.730469 1411.28125 911.289062 1396.949219 904.910156 Z M 1805.429688 912.289062 C 1727.25 879.328125 1696.828125 992.839844 1757.851562 1019.679688 C 1830.679688 1051.730469 1888.058594 947.121094 1805.429688 912.289062 Z M 1972.511719 1278.441406 C 1962.328125 1357.398438 1931.460938 1534.800781 1900.839844 1595.070312 C 1877.988281 1594.910156 1895.960938 1588.101562 1847.960938 1655.210938 C 1799.269531 1723.269531 1719.75 1816.648438 1611.46875 1802.148438 C 1472.328125 1783.53125 1532.148438 1551.191406 1308.539062 1714.761719 C 1259.25 1750.820312 1186.980469 1795.210938 1129.148438 1746.761719 C 1085.949219 1710.570312 1105.128906 1607.410156 1033.171875 1588.101562 C 928.570312 1560.03125 833.34375 1724.851562 724.859375 1714.621094 C 697.453125 1712.03125 705.632812 1706.210938 698.671875 1680.609375 C 695.144531 1621.039062 803.671875 1453.679688 830.753906 1440.101562 C 832.664062 1438.730469 839.582031 1433.460938 840.980469 1432.480469 L 855.441406 1422.421875 C 881.070312 1405.769531 899.859375 1399.628906 926.003906 1388.921875 C 953.257812 1377.75 1004.699219 1356.929688 1027.25 1336.140625 L 1031.230469 1324.929688 C 1098.480469 1272.351562 1025.398438 1229.050781 990.273438 1188.308594 C 854.371094 1030.671875 884.140625 962.179688 862.242188 908.011719 C 867.777344 866.148438 908.878906 858.898438 940.808594 870.449219 C 969.046875 880.660156 980.238281 911.679688 991.996094 940.21875 C 1012 988.789062 1058.03125 1067.910156 1103.230469 1064.46875 L 1102.820312 1042.210938 C 1113.890625 973.140625 1109.238281 915.710938 1140.929688 835.171875 C 1154.660156 800.269531 1166.539062 775.320312 1183.660156 744.378906 C 1196.320312 721.488281 1226.449219 675.820312 1225.269531 663.460938 L 1273.691406 637.679688 C 1282.789062 646.769531 1324.648438 633.589844 1337.660156 630.460938 C 1487.078125 594.53125 1696.878906 663.988281 1794.628906 764.441406 C 2001.851562 977.398438 1948.21875 1234.710938 1972.511719 1278.441406 "/>
<path fill-rule="evenodd" fill="rgb(75.976562%, 81.054688%, 96.09375%)" fill-opacity="1" d="M 1900.839844 1595.070312 C 1876.230469 1704.640625 1809.160156 1868.292969 1727.609375 1936.023438 C 1575.75 2062.160156 1518.980469 1821.378906 1342.078125 1923.804688 C 1130.488281 2046.324219 1167.160156 1850.824219 1004.210938 1831.628906 C 921.613281 1821.898438 883.398438 1875.140625 787.039062 1835.578125 C 742.664062 1817.359375 663.011719 1739.03125 698.671875 1680.609375 C 705.632812 1706.210938 697.453125 1712.03125 724.859375 1714.621094 C 833.34375 1724.851562 928.570312 1560.03125 1033.171875 1588.101562 C 1105.128906 1607.410156 1085.949219 1710.570312 1129.148438 1746.761719 C 1186.980469 1795.210938 1259.25 1750.820312 1308.539062 1714.761719 C 1532.148438 1551.191406 1472.328125 1783.53125 1611.46875 1802.148438 C 1719.75 1816.648438 1799.269531 1723.269531 1847.960938 1655.210938 C 1895.960938 1588.101562 1877.988281 1594.910156 1900.839844 1595.070312 "/>
<path fill-rule="evenodd" fill="rgb(12.010193%, 15.989685%, 32.00531%)" fill-opacity="1" d="M 1505.910156 1954.136719 C 1501.199219 1948.296875 1506.648438 1950.589844 1495.328125 1943.359375 C 1491.179688 1940.703125 1486.519531 1938.488281 1481.019531 1936.53125 C 1446.871094 1924.367188 1401.980469 1923.757812 1370.101562 1947.09375 C 1403.421875 1968.589844 1464.011719 1972.25 1505.910156 1954.136719 Z M 1082.730469 1903.324219 C 1059.671875 1861.765625 994.796875 1854.171875 944.480469 1865.078125 C 968.507812 1897.050781 1033.558594 1907.632812 1082.730469 1903.324219 Z M 2015.230469 1180.480469 L 1990.171875 1369.871094 C 2051.839844 1334.460938 2190.730469 1131.699219 2136.148438 1003.089844 C 2127.140625 971.921875 2117.28125 949.71875 2083.410156 944.550781 C 2049.53125 939.378906 2021.160156 955.730469 2010.5 980.140625 C 2001.738281 1000.210938 2009.160156 1152.878906 2015.230469 1180.480469 Z M 1102.820312 1042.210938 L 1103.230469 1064.46875 C 1058.03125 1067.910156 1012 988.789062 991.996094 940.21875 C 980.238281 911.679688 969.046875 880.660156 940.808594 870.449219 C 908.878906 858.898438 867.777344 866.148438 862.242188 908.011719 C 815.589844 954.601562 875.449219 1114.078125 899.609375 1159.328125 C 917.222656 1192.320312 943.808594 1226.421875 963.179688 1250.878906 C 980.425781 1272.671875 1027.320312 1302.300781 1031.230469 1324.929688 L 1027.25 1336.140625 C 978.714844 1325.78125 972.003906 1294.578125 937.8125 1271.808594 C 906.027344 1335.261719 855.140625 1384.890625 830.753906 1440.101562 C 803.671875 1453.679688 695.144531 1621.039062 698.671875 1680.609375 C 663.011719 1739.03125 742.664062 1817.359375 787.039062 1835.578125 C 883.398438 1875.140625 921.613281 1821.898438 1004.210938 1831.628906 C 1167.160156 1850.824219 1130.488281 2046.324219 1342.078125 1923.804688 C 1518.980469 1821.378906 1575.75 2062.160156 1727.609375 1936.023438 C 1809.160156 1868.292969 1876.230469 1704.640625 1900.839844 1595.070312 C 1931.460938 1534.800781 1962.328125 1357.398438 1972.511719 1278.441406 C 1992.601562 1069.570312 1980.859375 859.539062 1812.988281 718.050781 C 1757.960938 671.660156 1667.671875 615.261719 1566.808594 597.171875 C 1492.789062 583.890625 1322.519531 590.710938 1273.691406 637.679688 L 1225.269531 663.460938 C 1155.289062 699 1106.71875 759.320312 1065.828125 830.800781 C 1048.078125 861.828125 1017.898438 911.878906 1030.371094 950.011719 C 1041.941406 985.390625 1077.851562 1023.160156 1102.820312 1042.210938 Z M 1991.921875 946.671875 L 2001.179688 942.191406 C 2026.78125 927 2049.261719 900.679688 2104.011719 919.238281 C 2219.699219 958.441406 2170.980469 1180.628906 2116.671875 1269.171875 C 2049.179688 1379.199219 1988.21875 1399.539062 1974.898438 1443.890625 C 1925.21875 1609.339844 1833.160156 2064.742188 1590.929688 1995.890625 C 1568.160156 1989.414062 1554.78125 1977.03125 1536.179688 1978.542969 C 1523.679688 1979.558594 1498.511719 1991.109375 1475.46875 1993.492188 C 1402.480469 2001.054688 1394.210938 1980.4375 1340.988281 1971.832031 C 1308.941406 1966.648438 1272.441406 2002.007812 1210.570312 1990.621094 C 1156.070312 1980.59375 1137.070312 1951.464844 1104.738281 1930.210938 C 1048.988281 1939.4375 1004.828125 1933.550781 957.691406 1911.359375 C 942.894531 1904.390625 910.964844 1882.546875 904.214844 1880.664062 C 904.074219 1880.628906 644.535156 1893 662.78125 1687.230469 C 670.488281 1600.328125 738.222656 1512.371094 776.605469 1457.050781 C 805.867188 1414.878906 903.527344 1289.101562 917.800781 1242.980469 C 870.527344 1158.851562 819.070312 1107.890625 818.726562 968.351562 C 818.574219 906.609375 832.933594 859.410156 880.714844 842.101562 C 945.386719 818.660156 978.882812 860.441406 1004.371094 888.488281 C 1036.910156 831.179688 1039.019531 806.710938 1080.011719 753.628906 C 1300.359375 468.351562 1726.261719 507.410156 1921.300781 799.761719 C 1955.859375 851.550781 1964.839844 883.648438 1991.921875 946.671875 "/>
<path fill-rule="evenodd" fill="rgb(59.959412%, 65.039062%, 89.0625%)" fill-opacity="1" d="M 1774.609375 2212.632812 C 1764.199219 2223.910156 1787.511719 2218.675781 1752.429688 2235.945312 C 1722.5 2250.679688 1546.558594 2266.078125 1515.429688 2268.023438 C 1380.980469 2276.414062 709.523438 2296.535156 671.285156 2214.65625 C 746.183594 2163.222656 1114.78125 2161.550781 1224.441406 2161.546875 C 1389 2161.539062 1634.949219 2157.191406 1774.609375 2212.632812 "/>
<path fill-rule="evenodd" fill="rgb(99.021912%, 99.021912%, 99.021912%)" fill-opacity="1" d="M 1972.511719 1278.441406 C 1948.21875 1234.710938 2001.851562 977.398438 1794.628906 764.441406 C 1696.878906 663.988281 1487.078125 594.53125 1337.660156 630.460938 C 1324.648438 633.589844 1282.789062 646.769531 1273.691406 637.679688 C 1322.519531 590.710938 1492.789062 583.890625 1566.808594 597.171875 C 1667.671875 615.261719 1757.960938 671.660156 1812.988281 718.050781 C 1980.859375 859.539062 1992.601562 1069.570312 1972.511719 1278.441406 "/>
<path fill-rule="evenodd" fill="rgb(13.989258%, 15.989685%, 33.006287%)" fill-opacity="1" d="M 1517.761719 1180.550781 C 1557.25 1225.050781 1577.480469 1223.800781 1634.828125 1203.039062 L 1618.859375 1172.148438 C 1603.820312 1142.761719 1589.929688 1129.28125 1546.898438 1126.519531 C 1497.191406 1123.320312 1500.511719 1143.808594 1517.761719 1180.550781 Z M 1686.730469 1158.480469 C 1673.089844 1288.710938 1428.589844 1287.761719 1488.359375 1077.550781 C 1533.640625 918.289062 1708.230469 953.429688 1686.730469 1158.480469 "/>
<path fill-rule="evenodd" fill="rgb(91.014099%, 93.943787%, 96.09375%)" fill-opacity="1" d="M 2136.148438 1003.089844 C 2114.570312 1031.101562 2136.03125 1050.210938 2087.449219 1135.339844 C 2072.820312 1160.980469 2023.058594 1219.808594 2018.449219 1234.601562 L 2015.230469 1180.480469 C 2009.160156 1152.878906 2001.738281 1000.210938 2010.5 980.140625 C 2021.160156 955.730469 2049.53125 939.378906 2083.410156 944.550781 C 2117.28125 949.71875 2127.140625 971.921875 2136.148438 1003.089844 "/>
<path fill-rule="evenodd" fill="rgb(76.951599%, 81.054688%, 96.09375%)" fill-opacity="1" d="M 1102.820312 1042.210938 C 1077.851562 1023.160156 1041.941406 985.390625 1030.371094 950.011719 C 1017.898438 911.878906 1048.078125 861.828125 1065.828125 830.800781 C 1106.71875 759.320312 1155.289062 699 1225.269531 663.460938 C 1226.449219 675.820312 1196.320312 721.488281 1183.660156 744.378906 C 1166.539062 775.320312 1154.660156 800.269531 1140.929688 835.171875 C 1109.238281 915.710938 1113.890625 973.140625 1102.820312 1042.210938 "/>
<path fill-rule="evenodd" fill="rgb(76.951599%, 81.054688%, 96.09375%)" fill-opacity="1" d="M 1031.230469 1324.929688 C 1027.320312 1302.300781 980.425781 1272.671875 963.179688 1250.878906 C 943.808594 1226.421875 917.222656 1192.320312 899.609375 1159.328125 C 875.449219 1114.078125 815.589844 954.601562 862.242188 908.011719 C 884.140625 962.179688 854.371094 1030.671875 990.273438 1188.308594 C 1025.398438 1229.050781 1098.480469 1272.351562 1031.230469 1324.929688 "/>
<path fill-rule="evenodd" fill="rgb(76.951599%, 81.054688%, 96.09375%)" fill-opacity="1" d="M 2015.230469 1180.480469 L 2018.449219 1234.601562 C 2023.058594 1219.808594 2072.820312 1160.980469 2087.449219 1135.339844 C 2136.03125 1050.210938 2114.570312 1031.101562 2136.148438 1003.089844 C 2190.730469 1131.699219 2051.839844 1334.460938 1990.171875 1369.871094 L 2015.230469 1180.480469 "/>
<path fill-rule="evenodd" fill="rgb(12.010193%, 14.988708%, 31.005859%)" fill-opacity="1" d="M 1382.75 930.101562 C 1378.25 954.839844 1378.230469 955.078125 1405.871094 952.71875 C 1413.910156 919.730469 1401.371094 924.878906 1382.75 930.101562 Z M 1396.949219 904.910156 C 1411.28125 911.289062 1421.441406 910.730469 1430.53125 931.839844 C 1450.449219 978.070312 1408.300781 1037.320312 1349.910156 1011.890625 C 1284.640625 983.460938 1321.691406 871.390625 1396.949219 904.910156 "/>
<path fill-rule="evenodd" fill="rgb(12.988281%, 15.989685%, 30.004883%)" fill-opacity="1" d="M 1757.5 937.371094 C 1756.019531 940.648438 1744.441406 940.871094 1759.769531 963.390625 C 1791.429688 970.191406 1795.53125 929 1757.5 937.371094 Z M 1805.429688 912.289062 C 1888.058594 947.121094 1830.679688 1051.730469 1757.851562 1019.679688 C 1696.828125 992.839844 1727.25 879.328125 1805.429688 912.289062 "/>
<path fill-rule="evenodd" fill="rgb(76.951599%, 81.054688%, 96.09375%)" fill-opacity="1" d="M 1027.25 1336.140625 C 1004.699219 1356.929688 953.257812 1377.75 926.003906 1388.921875 C 899.859375 1399.628906 881.070312 1405.769531 855.441406 1422.421875 L 840.980469 1432.480469 C 839.582031 1433.460938 832.664062 1438.730469 830.753906 1440.101562 C 855.140625 1384.890625 906.027344 1335.261719 937.8125 1271.808594 C 972.003906 1294.578125 978.714844 1325.78125 1027.25 1336.140625 "/>
<path fill-rule="evenodd" fill="rgb(92.96875%, 78.90625%, 82.03125%)" fill-opacity="1" d="M 1517.761719 1180.550781 C 1527.980469 1168.148438 1504.28125 1173.140625 1541.960938 1167.53125 C 1543.960938 1167.230469 1566.140625 1167.589844 1569.261719 1167.828125 C 1594.601562 1169.761719 1597.691406 1176.109375 1618.859375 1172.148438 L 1634.828125 1203.039062 C 1577.480469 1223.800781 1557.25 1225.050781 1517.761719 1180.550781 "/>
<path fill-rule="evenodd" fill="rgb(84.959412%, 57.03125%, 59.959412%)" fill-opacity="1" d="M 1618.859375 1172.148438 C 1597.691406 1176.109375 1594.601562 1169.761719 1569.261719 1167.828125 C 1566.140625 1167.589844 1543.960938 1167.230469 1541.960938 1167.53125 C 1504.28125 1173.140625 1527.980469 1168.148438 1517.761719 1180.550781 C 1500.511719 1143.808594 1497.191406 1123.320312 1546.898438 1126.519531 C 1589.929688 1129.28125 1603.820312 1142.761719 1618.859375 1172.148438 "/>
<path fill-rule="evenodd" fill="rgb(55.076599%, 59.959412%, 83.006287%)" fill-opacity="1" d="M 1082.730469 1903.324219 C 1033.558594 1907.632812 968.507812 1897.050781 944.480469 1865.078125 C 994.796875 1854.171875 1059.671875 1861.765625 1082.730469 1903.324219 "/>
<path fill-rule="evenodd" fill="rgb(55.076599%, 59.959412%, 83.006287%)" fill-opacity="1" d="M 1505.910156 1954.136719 C 1464.011719 1972.25 1403.421875 1968.589844 1370.101562 1947.09375 C 1401.980469 1923.757812 1446.871094 1924.367188 1481.019531 1936.53125 C 1486.519531 1938.488281 1491.179688 1940.703125 1495.328125 1943.359375 C 1506.648438 1950.589844 1501.199219 1948.296875 1505.910156 1954.136719 "/>
<path fill-rule="evenodd" fill="rgb(94.921875%, 96.09375%, 98.046875%)" fill-opacity="1" d="M 1759.769531 963.390625 C 1744.441406 940.871094 1756.019531 940.648438 1757.5 937.371094 C 1795.53125 929 1791.429688 970.191406 1759.769531 963.390625 "/>
<path fill-rule="evenodd" fill="rgb(94.921875%, 96.09375%, 98.046875%)" fill-opacity="1" d="M 1405.871094 952.71875 C 1378.230469 955.078125 1378.25 954.839844 1382.75 930.101562 C 1401.371094 924.878906 1413.910156 919.730469 1405.871094 952.71875 "/>
</svg>
